<svg width="1050.01" height="486.47" xmlns="http://www.w3.org/2000/svg" data-name="图层 1">

 <g>
  <title>Layer 1</title>
  <path id="svg_1" fill="#e5e5e5" d="m96.93,153.82a6,6 0 0 1 6,-6l205.27,0a6,6 0 0 1 6,6l0,325.18a6,6 0 0 1 -6,6l-205.27,0a6,6 0 0 1 -6,-6l0,-325.18z" class="cls-1"/>
  <path id="svg_2" stroke-width="3px" stroke="#757575" fill="none" d="m120.04,147.82l11.4,0m11.4,0l11.36,0m11.4,0l11.42,0m11.4,0l11.4,0m11.4,0l11.4,0m11.42,0l11.4,0m11.4,0l11.4,0m11.4,0l11.4,0m11.42,0l5.74,0l3,0.8l2.15,2.17l0.82,3l0,5.8m0,11.62l0,11.6m0,11.62l0,11.6m0,11.63l0,11.6m0,11.62l0,11.62m0,11.6l0,11.62m0,11.6l0,11.68m0,11.6l0,11.6m0,11.6l0,11.62m0.03,11.58l0,11.6m0,11.6l0,11.63m0,11.6l0,11.62m0,11.6l0,11.63m0,11.6l0,11.62m0,11.62l0,5.88l-0.82,3l-2.18,2.15l-3,0.82l-5.7,0m-11.4,0l-11.4,0m-11.4,0l-11.42,0m-11.4,0l-11.4,0m-11.4,0l-11.4,0m-11.4,0l-11.42,0m-11.4,0l-11.4,0m-11.4,0l-11.4,0m-11.42,0l-11.4,0m-11.4,0l-5.7,0l-3,-0.8l-2.18,-2.17l-0.82,-3l0,-5.8m0,-11.62l0,-11.58m0,-11.62l0,-11.67m0,-11.6l0,-11.62m0,-11.6l0,-11.63m0,-11.6l0,-11.6m0,-11.63l0,-11.6m0,-11.62l0,-11.62m0,-11.6l0,-11.63m0,-11.6l0,-11.62m0,-11.6l0,-11.63m0,-11.6l0,-11.62m0,-11.62l0,-11.6m0,-11.6l0,-11.62m0,-11.62l0,-5.8l0.82,-3l2.16,-2.16l3,-0.8l5.7,0" class="cls-2"/>
  <path id="svg_3" stroke-width="2px" fill-opacity="0" fill="#fff" stroke="#757575" d="m98.02,8a6,6 0 0 1 6,-6l208.18,0a6,6 0 0 1 6,6l0,53.9a6,6 0 0 1 -6,6l-208.18,0a6,6 0 0 1 -6,-6l0,-53.9z" class="cls-3"/>
  <path id="svg_4" fill="none" d="m683.31,173.66l366.7,0l0,212.8l-366.7,0l0,-212.8z" class="cls-5"/>
  <path id="svg_5" stroke-width="0.2px" stroke-opacity="0" stroke="#000" fill="#333" d="m193.9,236.12l-25.56,0a7.55,7.55 0 0 0 -7.52,7.5l0,54.68a7.56,7.56 0 0 0 7.52,7.5l25.56,0a7.54,7.54 0 0 0 7.5,-7.5l0,-54.7a7.53,7.53 0 0 0 -7.5,-7.48zm-12.78,68.1a3.47,3.47 0 1 1 0,-6.94a3.47,3.47 0 0 1 0,6.93l0,0.01zm16.32,-10.55a2,2 0 0 1 -2,2l-28.74,0a2,2 0 0 1 -1.9,-1.95l0,-45.46a2,2 0 0 1 1.9,-1.94l28.76,0a2,2 0 0 1 2,1.94l0,45.41l-0.02,0z" class="cls-6"/>
  <path id="svg_6" stroke-width="0.2px" stroke-opacity="0" stroke="#000" fill="#333" d="m247.2,220.66a7.46,7.46 0 0 0 -7.44,-7.4l-50.7,0a7.48,7.48 0 0 0 -7.5,7.5l0,11.38l4.83,0l0,-6.48a2.28,2.28 0 0 1 2.32,-2.3l51.3,0a2.37,2.37 0 0 1 2.42,2.3l0,66.16a2.46,2.46 0 0 1 -2.42,2.4l-34.61,0l0,3.7a11,11 0 0 1 -3.3,7.88l37.66,0a7.48,7.48 0 0 0 7.43,-7.5l0,-77.64l0.01,0zm-32.83,82.45a3.33,3.33 0 1 1 0,-6.66a3.33,3.33 0 1 1 0,6.65l0,0.01z" class="cls-6"/>
  <path id="svg_7" stroke-opacity="0" stroke="#000" fill-opacity="0" fill="#fff" stroke-width="3px" d="m159.25,165.06a6,6 0 0 1 6,-6l77.34,0a6,6 0 0 1 6,6l0,51.35a6,6 0 0 1 -6,6l-77.39,0a6,6 0 0 1 -6,-6l0.05,-51.35z" class="cls-7"/>
  <g data-name="k" id="k-3">
   <path d="m208.54,195.35l-1.34,-3.89l-5.81,0l-1.35,3.89l-3.21,0l5.54,-15.35l3.77,0l5.55,15.31l-3.15,0.04zm-2,-6.29l-2.22,-6.67c-0.62,2.35 -1.49,4.44 -2.23,6.67l4.45,0" id="ae"/>
  </g>
  <path id="svg_8" stroke-width="0.2px" stroke-opacity="0" stroke="#000" fill="#333" d="m193.9,351.12l-25.56,0a7.55,7.55 0 0 0 -7.52,7.5l0,54.68a7.56,7.56 0 0 0 7.52,7.5l25.56,0a7.54,7.54 0 0 0 7.5,-7.5l0,-54.7a7.53,7.53 0 0 0 -7.5,-7.48zm-12.78,68.1a3.47,3.47 0 1 1 0,-6.94a3.47,3.47 0 0 1 0,6.93l0,0.01zm16.32,-10.55a2,2 0 0 1 -2,2l-28.74,0a2,2 0 0 1 -1.9,-1.95l0,-45.46a2,2 0 0 1 1.9,-1.94l28.76,0a2,2 0 0 1 2,1.94l0,45.41l-0.02,0z" class="cls-6"/>
  <path id="svg_9" stroke-width="0.2px" stroke-opacity="0" stroke="#000" fill="#333" d="m247.2,335.66a7.46,7.46 0 0 0 -7.44,-7.4l-50.7,0a7.48,7.48 0 0 0 -7.5,7.5l0,11.38l4.83,0l0,-6.48a2.28,2.28 0 0 1 2.32,-2.3l51.3,0a2.37,2.37 0 0 1 2.42,2.3l0,66.16a2.46,2.46 0 0 1 -2.42,2.4l-34.61,0l0,3.7a11,11 0 0 1 -3.3,7.88l37.66,0a7.48,7.48 0 0 0 7.43,-7.5l0,-77.64l0.01,0zm-32.83,82.45a3.33,3.33 0 1 1 0,-6.66a3.33,3.33 0 1 1 0,6.65l0,0.01z" class="cls-6"/>
  <path id="svg_10" stroke-opacity="0" stroke="#000" fill-opacity="0" fill="#fff" stroke-width="3px" d="m159.2,434.59a6,6 0 0 1 6,-6l77.44,0a6,6 0 0 1 6,6l0,38.41a6,6 0 0 1 -6,6l-77.44,0a6,6 0 0 1 -6,-6l0,-38.41z" class="cls-7"/>
  <g data-name="l" id="l-2">
   <path d="m207.44,451c2.28,0.24 3.83,1.36 3.83,3.64c0,5.8 -7.9,4.14 -13.58,4.38l0,-15.27c5.18,0.31 12.53,-1.42 12.65,3.89a3.26,3.26 0 0 1 -2.9,3.36zm-6.54,-1.11c2.47,-0.19 6.23,0.8 6.23,-1.86s-3.7,-1.72 -6.23,-1.91l0,3.77zm0,6.79c3,-0.19 7.16,0.86 7.16,-2.29c0,-3 -4.26,-2 -7.16,-2.16l0,4.45" id="af"/>
  </g>
  <path id="svg_11" stroke="#000" stroke-width="2px" fill="none" d="m205.57,69.4l0,58.4" class="cls-8"/>
  <path id="svg_12" d="m206.57,69.43l-2,0l0,-1l2,0l0,1z"/>
  <path id="svg_13" stroke="#000" stroke-width="2px" d="m205.57,143.08l-4.64,-14.27l9.27,0l-4.63,14.27z" class="cls-9"/>
  <path id="svg_14" fill="#ffeca9" stroke-opacity="0" stroke="#000" stroke-width="3px" d="m58.93,323.66a4.59,4.59 0 0 0 -3.2,6.78l13.67,27.82a4.59,4.59 0 0 0 7.32,1.63l67.3,-54.07c2.6,-2.07 2.08,-3.13 -1.14,-2.35l-83.95,20.19z" class="cls-10"/>
  <path id="svg_15" fill="#ffeca9" stroke-opacity="0" stroke="#000" stroke-width="3px" d="m78.38,305.61a4.59,4.59 0 0 0 -7.32,1.63l-13.66,27.82a4.61,4.61 0 0 0 3.2,6.8l83.94,20.14c3.22,0.77 3.74,-0.28 1.15,-2.36l-67.31,-54.03z" class="cls-10"/>
  <path id="svg_16" stroke-width="4px" stroke="#fff" fill="#ffeca9" d="m58.93,323.66a4.59,4.59 0 0 0 -3.2,6.78l13.67,27.82a4.59,4.59 0 0 0 7.32,1.63l67.3,-54.07c2.6,-2.07 2.08,-3.13 -1.14,-2.35l-83.95,20.19z" class="cls-11"/>
  <path id="svg_17" stroke-width="4px" stroke="#fff" fill="#ffeca9" d="m78.38,305.61a4.59,4.59 0 0 0 -7.32,1.63l-13.66,27.82a4.61,4.61 0 0 0 3.2,6.8l83.94,20.14c3.22,0.77 3.74,-0.28 1.15,-2.36l-67.31,-54.03z" class="cls-11"/>
  <path id="svg_18" stroke="#000" stroke-width="2px" fill="none" d="m265.7,282.19l410,0" class="cls-8"/>
  <path id="svg_19" stroke="#000" stroke-width="2px" d="m250.42,282.19l14.27,-4.63l0,9.27l-14.27,-4.64zm440.54,0l-14.26,4.64l0,-9.27l14.26,4.63z" class="cls-9"/>
  <path id="svg_20" stroke="#000" stroke-width="2px" fill="none" d="m316.7,206.34l188.12,0a0.13,0.13 0 0 1 0.13,0.13a0.13,0.13 0 0 0 0.13,0.13l170.62,0m-359,-0.26l-1,0" class="cls-8"/>
  <path id="svg_21" stroke="#000" stroke-width="2px" d="m690.96,206.59l-14.26,4.64l0,-9.23l14.26,4.59z" class="cls-9"/>
  <path id="svg_22" stroke="#000" stroke-width="2px" fill="none" d="m265.7,359.53l408.66,0" class="cls-8"/>
  <path id="svg_23" stroke="#000" stroke-width="2px" d="m250.42,359.53l14.27,-4.64l0,9.27l-14.27,-4.63zm439.21,0l-14.27,4.63l0,-9.27l14.27,4.64z" class="cls-9"/>
  <path id="svg_24" fill="#ffeca9" stroke-opacity="0" stroke="#000" stroke-width="3px" d="m2,284.56a9,9 0 0 1 9,-9l81.8,0a9,9 0 0 1 9,9l0,110.44a9,9 0 0 1 -9,9l-81.8,0a9,9 0 0 1 -9,-9l0,-110.44z" class="cls-10"/>
  <path id="svg_25" stroke-width="4px" stroke="#fff" fill="#ffeca9" d="m2,284.56a9,9 0 0 1 9,-9l81.8,0a9,9 0 0 1 9,9l0,110.44a9,9 0 0 1 -9,9l-81.8,0a9,9 0 0 1 -9,-9l0,-110.44z" class="cls-11"/>
  <path id="svg_26" fill="#fff" d="m54.54,353.11l32.85,-16.35l0,-32.6l-32.86,16.3l0,32.65l0.01,0z" class="cls-12"/>
  <path id="svg_27" fill="#fff" d="m21.75,336.76l32.8,16.3l0,-32.6l-32.8,-16.26l0,32.55l0,0.01zm65.45,-32.58l-32.63,-16.18l-32.6,16.2l32.6,16.2l32.63,-16.22z" class="cls-12"/>
  <path id="svg_28" fill="#fff" d="m54.56,319.41l30.7,-15.22l0,0l-30.7,15.23l0,-0.01zm-30.66,-15.25l0,0l30.7,15.22l-30.71,-15.21l0.01,-0.01z" class="cls-12"/>
  <path id="svg_29" fill="#444" d="m87.3,303.16l-32.76,-16.3l-32.76,16.3l-1,0.53l0,33.63l32.81,16.28l1,0.54l1,-0.54l32.83,-16.28l0,-33.63l-1.12,-0.53zm-1,33.08l-30.67,15.27l0,-30.51l30.73,-15.2l-0.06,30.44zm-32.77,15.27l-30.74,-15.27l0,-30.48l30.73,15.24l0.01,30.51zm-29.65,-47.35l30.66,-15.16l30.74,15.2l-30.74,15.23l-30.66,-15.27z" class="cls-13"/>
  <path id="svg_30" fill="#009efe" d="m54.7,338.06l17.65,-8.76l0,-17.5l-17.65,8.75l0,17.5l0,0.01zm-17.92,-8.76l17.65,8.77l0,-17.5l-17.65,-8.75l0,17.48zm35.42,-17.74l-17.6,-8.7l-17.6,8.7l17.6,8.77l17.6,-8.76l0,-0.01z" class="cls-14"/>
  <path id="svg_31" fill="#56cd64" d="m54.56,319.43l15.82,-7.84l0,0l-15.82,7.87l0,-0.03zm-15.81,-7.87l0,0l15.8,7.84l-15.8,-7.86l0,0.02z" class="cls-15"/>
  <path id="svg_32" fill="#fff" d="m72.46,310.51l-17.9,-8.86l-17.92,8.85l-1,0.53l0,18.88l17.9,8.9l1.05,0.52l1,-0.53l17.92,-8.9l0,-18.84l-1.05,-0.55zm-1,18.35l-15.86,7.88l0,-15.74l15.84,-7.84l0.02,15.7zm-17.93,7.88l-15.83,-7.88l0,-15.7l15.82,7.84l0.01,15.74zm-14.75,-25.17l15.8,-7.83l15.8,7.84l-15.8,7.88l-15.84,-7.84l0.04,-0.05z" class="cls-12"/>
  <path id="svg_33" fill="#fff" d="m54.54,353.11l32.85,-16.35l0,-32.6l-32.86,16.3l0,32.65l0.01,0z" class="cls-12"/>
  <path id="svg_34" fill="#fff" d="m21.75,336.76l32.8,16.3l0,-32.6l-32.8,-16.26l0,32.55l0,0.01zm65.45,-32.58l-32.63,-16.18l-32.6,16.2l32.6,16.2l32.63,-16.22z" class="cls-12"/>
  <path id="svg_35" fill="#fff" d="m54.56,319.41l30.7,-15.22l0,0l-30.7,15.23l0,-0.01zm-30.66,-15.25l0,0l30.7,15.22l-30.71,-15.21l0.01,-0.01z" class="cls-12"/>
  <path id="svg_36" fill="#444" d="m87.3,303.16l-32.76,-16.3l-32.76,16.3l-1,0.53l0,33.63l32.81,16.28l1,0.54l1,-0.54l32.83,-16.28l0,-33.63l-1.12,-0.53zm-1,33.08l-30.67,15.27l0,-30.51l30.73,-15.2l-0.06,30.44zm-32.77,15.27l-30.74,-15.27l0,-30.48l30.73,15.24l0.01,30.51zm-29.65,-47.35l30.66,-15.16l30.74,15.2l-30.74,15.23l-30.66,-15.27z" class="cls-13"/>
  <path id="svg_37" fill="#009efe" d="m54.7,338.06l17.65,-8.76l0,-17.5l-17.65,8.75l0,17.5l0,0.01zm-17.92,-8.76l17.65,8.77l0,-17.5l-17.65,-8.75l0,17.48zm35.42,-17.74l-17.6,-8.7l-17.6,8.7l17.6,8.77l17.6,-8.76l0,-0.01z" class="cls-14"/>
  <path id="svg_38" fill="#56cd64" d="m54.56,319.43l15.82,-7.84l0,0l-15.82,7.87l0,-0.03zm-15.81,-7.87l0,0l15.8,7.84l-15.8,-7.86l0,0.02z" class="cls-15"/>
  <path id="svg_39" fill="#fff" d="m72.46,310.51l-17.9,-8.86l-17.92,8.85l-1,0.53l0,18.88l17.9,8.9l1.05,0.52l1,-0.53l17.92,-8.9l0,-18.84l-1.05,-0.55zm-1,18.35l-15.86,7.88l0,-15.74l15.84,-7.84l0.02,15.7zm-17.93,7.88l-15.83,-7.88l0,-15.7l15.82,7.84l0.01,15.74zm-14.75,-25.17l15.8,-7.83l15.8,7.84l-15.8,7.88l-15.84,-7.84l0.04,-0.05z" class="cls-12"/>
  <g data-name="A" id="A-2">
   <path fill="#333" d="m36.42,375.24l-1.08,-3.12l-4.65,0l-1.08,3.12l-2.57,0l4.44,-12.24l3,0l4.44,12.25l-2.5,-0.01zm-1.63,-5l-1.78,-5.33c-0.49,1.87 -1.18,3.55 -1.77,5.33l3.55,0" class="cls-4" id="aD"/>
   <path fill="#333" d="m49.01,374.94c0.55,4.35 -5.92,5.23 -8.09,2.57a3.22,3.22 0 0 1 -0.4,-1l2.42,-0.3a1.6,1.6 0 0 0 1.68,1.24c2,0 2.07,-1.83 2,-3.9a3.09,3.09 0 0 1 -3,1.73c-2.61,0 -3.45,-2.13 -3.45,-4.79s0.88,-4.74 3.6,-4.79a3.19,3.19 0 0 1 2.91,1.67l0.1,-1.48l2.32,0l-0.09,9.05zm-4.44,-1.43c1.58,0 2,-1.34 2,-3.11s-0.45,-3.07 -2,-3.07s-1.93,1.44 -2,3.12s0.45,3.06 1.93,3.06" class="cls-4" data-name="aE" id="aE-2"/>
   <path fill="#333" d="m55.63,365.66c3.16,0 4.74,1.77 4.74,4.88s-1.73,4.89 -4.79,4.89s-4.69,-1.77 -4.69,-4.89s1.68,-4.88 4.74,-4.88zm-0.05,8.09c1.73,0 2.22,-1.38 2.22,-3.21s-0.49,-3.21 -2.12,-3.21s-2.22,1.29 -2.22,3.21s0.49,3.21 2.12,3.21" class="cls-4" data-name="aF" id="aF-2"/>
   <path fill="#333" d="m67.68,367.83c-1.92,-0.59 -3,0.64 -3,2.81l0,4.6l-2.43,0l0,-9.39l2.32,0a12.17,12.17 0 0 0 0.15,2c0.3,-1.38 1.33,-2.62 3,-2l0,2" class="cls-4" data-name="aG" id="aG-3"/>
   <path fill="#333" d="m74.5,373.56c-0.79,0.94 -1.49,1.92 -3.16,1.87a2.6,2.6 0 0 1 -2.87,-2.86c0,-3 2.72,-3.11 5.73,-3c0,-1.29 -0.15,-2.32 -1.38,-2.32a1.29,1.29 0 0 0 -1.39,1.33l-2.56,-0.1c0.34,-1.88 1.77,-2.86 4,-2.81s3.65,1.08 3.7,3.35l0,4.05c0,0.69 0.59,0.89 1.23,0.74l0,1.34c-1.38,0.38 -3.4,0.23 -3.3,-1.59zm-2.37,0.15c1.43,0 2.12,-1.19 2.07,-2.82c-1.58,0 -3.26,-0.15 -3.21,1.48c0,0.84 0.4,1.34 1.14,1.34" class="cls-4" data-name="aH" id="aH-3"/>
  </g>
  <g data-name="B" id="B-2">
   <path fill="#333" d="m14.3,396.57l-2.62,0l-4.54,-12.25l2.71,0l3.16,10.18c0.84,-3.56 2.08,-6.77 3.12,-10.18l2.66,0" class="cls-4" data-name="aI" id="aI-3"/>
   <path fill="#333" d="m19.78,385.51l0,-1.83l2.47,0l0,1.83l-2.47,0zm0,11.06l0,-9.38l2.47,0l0,9.38l-2.47,0" class="cls-4" data-name="aJ" id="aJ-7"/>
   <path fill="#333" d="m27.83,387a3,3 0 0 1 2.86,1.68l-0.05,-5l2.47,0l0.09,12.89l-2.41,0a13.22,13.22 0 0 0 -0.15,-1.53a3,3 0 0 1 -3,1.73c-2.57,0 -3.36,-2.23 -3.41,-4.89s0.97,-4.79 3.6,-4.88zm0.84,8.1c1.63,0 2,-1.48 2,-3.26s-0.44,-3.16 -2,-3.16s-1.88,1.48 -1.93,3.21c0,2.12 0.65,3.21 1.93,3.21" class="cls-4" data-name="aK" id="aK-7"/>
   <path fill="#333" d="m43.43,394.2a4,4 0 0 1 -4,2.57c-3,-0.1 -4.4,-1.83 -4.4,-4.94s1.44,-4.83 4.4,-4.83s4.1,2.22 4.15,5.33l-6,0c0,1.53 0.39,2.72 1.92,2.77a1.52,1.52 0 0 0 1.7,-1.1l2.23,0.2zm-2.23,-3.41c0.25,-2.27 -2.81,-3.11 -3.45,-1a3.26,3.26 0 0 0 -0.2,1l3.65,0" class="cls-4" data-name="aL" id="aL-3"/>
   <path fill="#333" d="m49.61,387c3.16,0 4.74,1.78 4.74,4.89s-1.73,4.89 -4.79,4.89s-4.69,-1.78 -4.69,-4.89s1.68,-4.89 4.74,-4.89zm0,8.1c1.73,0 2.22,-1.38 2.22,-3.21c0,-2 -0.49,-3.21 -2.12,-3.21s-2.23,1.28 -2.23,3.21s0.5,3.21 2.13,3.21" class="cls-4" data-name="aF" id="aF-3"/>
  </g>
  <g data-name="C" id="C-3">
   <path fill="#333" d="m68.27,387.58c0,-2.12 -4.64,-2.27 -4.79,-0.15c0.89,3.26 7.46,0.5 7.61,5.63c0.15,4.69 -8.15,4.6 -10.08,1.78a3.69,3.69 0 0 1 -0.59,-1.48l2.47,-0.4c0.15,2.28 5.53,2.77 5.73,0.25c-0.84,-3.41 -7.41,-0.49 -7.61,-5.63c-0.19,-4.29 7.56,-4.34 9.29,-1.73a4.17,4.17 0 0 1 0.49,1.39" class="cls-4" data-name="aM" id="aM-9"/>
   <path fill="#333" d="m72.97,384.32c5.92,-0.34 11,0.25 10.91,6c-0.05,3.95 -2.17,6.22 -6,6.22l-4.91,0l0,-12.22zm2.56,10.27c3.66,0.35 5.78,-0.88 5.78,-4.24s-2.22,-4.35 -5.78,-4.05l0,8.29" class="cls-4" data-name="aN" id="aN-7"/>
   <path fill="#333" d="m94.2,396.57l-4.35,-5.63l-1.53,1.18l0,4.45l-2.56,0l0,-12.25l2.56,0l0,5.58l5.53,-5.58l3,0l-5.24,5.19l5.68,7.06l-3.09,0" class="cls-4" data-name="aO" id="aO-3"/>
  </g>
  <path id="svg_40" stroke-miterlimit="10" stroke="#09f" fill="#009efd" d="m942.07,247.67l-0.16,0a74.91,74.91 0 0 0 -148.38,-8.94c-0.84,0 -1.7,-0.06 -2.54,-0.06a60.49,60.49 0 0 0 -57.89,42.94c-1.16,-0.09 -2.35,-0.16 -3.54,-0.16a39.09,39.09 0 0 0 0,78.18l212.48,0a56,56 0 0 0 0,-112l0.03,0.04z" class="cls-16"/>
  <g data-name="i" id="i-5">
   <path fill="#fff" d="m775.07,293.66l-1.5,-4.28l-6.37,0l-1.49,4.28l-3.51,0l6.11,-16.84l4.14,0l6.11,16.84l-3.49,0zm-2.24,-6.92l-2.45,-7.34c-0.68,2.58 -1.63,4.89 -2.44,7.34l4.89,0" class="cls-12" data-name="S" id="S-3"/>
   <path fill="#fff" d="m792.38,293.25c0.75,6 -8.15,7.2 -11.13,3.54a4.44,4.44 0 0 1 -0.55,-1.43l3.33,-0.41a2.19,2.19 0 0 0 2.31,1.7c2.71,0 2.85,-2.51 2.71,-5.36a4.2,4.2 0 0 1 -4.14,2.37c-3.6,0 -4.75,-2.92 -4.75,-6.58s1.22,-6.52 5,-6.59a4.38,4.38 0 0 1 4,2.31l0.14,-2l3.19,0l-0.11,12.45zm-6.11,-2c2.17,0 2.78,-1.84 2.78,-4.28s-0.61,-4.21 -2.71,-4.21s-2.65,2 -2.72,4.28s0.61,4.21 2.65,4.21" class="cls-12" data-name="T" id="T-3"/>
   <path fill="#fff" d="m801.48,280.49c4.35,0 6.52,2.44 6.52,6.72s-2.38,6.72 -6.59,6.72s-6.45,-2.44 -6.45,-6.72s2.31,-6.72 6.52,-6.72zm-0.07,11.13c2.38,0 3.06,-1.9 3.06,-4.41c0,-2.71 -0.68,-4.41 -2.92,-4.41s-3.06,1.76 -3.06,4.41c0,2.45 0.68,4.41 2.92,4.41" class="cls-12" data-name="U" id="U-2"/>
   <path fill="#fff" d="m818.05,283.48c-2.65,-0.82 -4.08,0.88 -4.08,3.87l0,6.31l-3.39,0l-0.07,-12.9l3.19,0a16.59,16.59 0 0 0 0.21,2.72c0.4,-1.9 1.83,-3.6 4.14,-2.79l0,2.79" class="cls-12" data-name="V" id="V-2"/>
   <path fill="#fff" d="m827.42,291.35c-1.09,1.29 -2,2.65 -4.35,2.58c-2.51,-0.06 -3.94,-1.35 -3.94,-3.93c-0.06,-4.08 3.74,-4.28 7.88,-4.15c0.07,-1.76 -0.2,-3.19 -1.9,-3.19a1.76,1.76 0 0 0 -1.9,1.84l-3.53,-0.14c0.47,-2.58 2.44,-3.94 5.57,-3.87s5,1.49 5.09,4.62l0.07,5.56c-0.07,0.95 0.81,1.23 1.69,1l0,1.84c-2.03,0.56 -4.82,0.36 -4.68,-2.16zm-3.26,0.21c2,0 2.92,-1.63 2.85,-3.87c-2.17,0 -4.48,-0.21 -4.41,2c0,1.16 0.54,1.84 1.56,1.84" class="cls-12" data-name="W" id="W-2"/>
  </g>
  <g data-name="j" id="j-3">
   <path fill="#fff" d="m850.2,281.3c-0.06,-2.92 -6.38,-3.12 -6.58,-0.2c1.22,4.48 10.25,0.68 10.45,7.74c0.21,6.45 -11.2,6.32 -13.85,2.45a4.87,4.87 0 0 1 -0.81,-2l3.39,-0.54c0.21,3.12 7.61,3.8 7.88,0.33c-1.16,-4.68 -10.19,-0.67 -10.46,-7.74c-0.27,-5.9 10.39,-6 12.77,-2.37a5.81,5.81 0 0 1 0.68,1.9" class="cls-12" data-name="X" id="X-2"/>
   <path fill="#fff" d="m856.68,276.82c8.15,-0.47 15.15,0.34 15,8.29c-0.07,5.43 -3,8.55 -8.22,8.55l-6.79,0l0.01,-16.84zm3.52,14.18c5,0.47 8,-1.23 8,-5.84s-3.06,-6 -8,-5.57l0,11.41" class="cls-12" data-name="Y" id="Y-2"/>
   <path fill="#fff" d="m873.59,288.77l0,-2.92l6.18,0l0,2.92l-6.18,0" class="cls-12" data-name="Z" id="Z-2"/>
   <path fill="#fff" d="m897.02,281.85a4.61,4.61 0 0 1 -3.67,4.75l4.55,7.06l-4,0l-3.87,-6.38l-4.14,0l0,6.38l-3.53,0l0,-16.84c6.31,0.27 14.73,-1.56 14.66,5.03zm-11.14,2.71c3.26,-0.13 7.61,0.82 7.61,-2.58s-4.48,-2.17 -7.61,-2.37l0,4.95" class="cls-12" data-name="aa" id="aa-2"/>
   <path fill="#fff" d="m907.54,279.54l0,14.12l-3.53,0l0,-14.12l-5.43,0l0,-2.72l14.39,0l0,2.72l-5.43,0" class="cls-12" data-name="ab" id="ab-2"/>
   <path fill="#fff" d="m925.06,293.66l-7.33,-13c0.4,3.94 0.13,8.69 0.2,13l-3.12,0l0,-16.84l4,0l7.47,13.11c-0.4,-3.94 -0.13,-8.76 -0.2,-13.11l3.12,0l0,16.84l-4.14,0" class="cls-12" data-name="ac" id="ac-2"/>
   <path fill="#fff" d="m937.2,276.93l0,9.89l-2.47,0l0,-9.89l-3.81,0l0,-1.93l10.08,0l0,1.9l-3.8,0" class="cls-12" data-name="ab" id="ab-3"/>
   <path fill="#fff" d="m952.11,286.82l0.09,-9.7l-3,9.7l-1.8,0l-3,-9.7l0.09,9.7l-2.19,0l0,-11.82l3.33,0l2.66,8.79l2.71,-8.79l3.28,0l0,11.79l-2.18,0" class="cls-12" data-name="ad" id="ad-2"/>
  </g>
  <text xml:space="preserve" text-anchor="start" font-family="Noto Sans JP" font-size="24" id="svg_42" y="22.765" x="136.995" fill-opacity="0" stroke-width="0" stroke="#757575" fill="#000000">swfc</text>
  <text font-style="normal" font-weight="normal" transform="matrix(0.481211 0 0 0.742065 66.3969 10.5149)" stroke="#757575" xml:space="preserve" text-anchor="start" font-family="sans-serif" font-size="24" id="svg_43" y="39" x="134.34271" stroke-width="0" fill="#000000">1. 创建一个或多个媒体轨道</text>
  <text font-style="normal" font-weight="normal" transform="matrix(0.481211 0 0 0.742065 66.3969 10.5149)" stroke="#757575" xml:space="preserve" text-anchor="start" font-family="sans-serif" font-size="24" id="svg_46" y="239.79103" x="761.92598" stroke-width="0" fill="#000000">2. 加入场景</text>
  <text font-style="normal" font-weight="normal" transform="matrix(0.481211 0 0 0.742065 66.3969 10.5149)" stroke="#757575" xml:space="preserve" text-anchor="start" font-family="sans-serif" font-size="24" id="svg_47" y="427.10616" x="749.45744" stroke-width="0" fill="#000000">3. 发布/接收流</text>
 </g>
</svg>